<?xml version="1.0" standalone="no"?>
<svg width="64" height="64" viewBox="0 0 384 384" version="1.1" xmlns="http://www.w3.org/2000/svg">
  <path d="M229 298c16 -5 30 -15 42 -27c21 -21 33 -49 33 -79c0 -27 -10 -54 -28 -74l-75 75zM214 302l-28 -104l-104 -28c-1 7 -2 15 -2 22c0 30 12 58 33 79s49 33 79 33c7 0 15 -1 22 -2zM86 154l104 28l75 -75c-20 -17 -46 -27 -73 -27c-30 0 -58 12 -79 33 c-12 12 -21 26 -27 41zM384 175l-33 -8l-3 -14l27 -20l-12 -30l-34 5l-8 -11l17 -29l-23 -23l-29 17l-10 -7l5 -34l-29 -12l-21 27l-14 -3l-8 -33h-32l-9 33l-13 3l-21 -28l-29 12l4 34l-11 8l-30 -19l-23 23l18 31l-7 11l-35 -5l-12 29l28 22l-2 12l-35 9v32l35 9l2 12 l-29 22l12 30l36 -5l7 10l-19 32l22 22l32 -19l11 8l-4 35l29 13l22 -29l12 2l9 35h32l9 -35l12 -2l22 28l29 -12l-5 -35l11 -8l30 18l22 -23l-17 -30l7 -10l35 5l12 -30l-28 -21l3 -13l33 -9v-32zM192 64c71 0 128 57 128 128s-57 128 -128 128s-128 -57 -128 -128 s57 -128 128 -128z" transform="matrix(1,0,0,-1,0,384)"/>
</svg>